# xmcd CD database file
#
# Track frame offsets:
#	150
#	22497
#	39427
#	54131
#	70212
#	86545
#	101090
#	115280
#	127399
#	143384
#	157808
#	170636
#	185885
#	201114
#	214070
#	222710
#
# Disc length: 3229 seconds
#
# Revision: 0
# Processed by: cddbd v1.5.2PL0 Copyright (c) Steve Scherf et al.
# Submitted via: CDex 1.51
#
DISCID=f50c9b10
DTITLE=Amazan - forró gostoso
DYEAR=1900
DGENRE=Forró
TTITLE0=carona de candidato
TTITLE1=globalização
TTITLE2=o picolé
TTITLE3=é hoje que eu só chego amanhã
TTITLE4=coração turista
TTITLE5=nheco-nheco
TTITLE6=forró gostoso
TTITLE7=negócio dela
TTITLE8=sertão em carne e alma
TTITLE9=tudo que eu quero
TTITLE10=o maior amor do mundo
TTITLE11=dê um passo
TTITLE12=carona
TTITLE13=é agora
TTITLE14=o que sobra do pinto
TTITLE15=carona de candidato (recitado)
EXTD=
EXTT0=
EXTT1=
EXTT2=
EXTT3=
EXTT4=
EXTT5=
EXTT6=
EXTT7=
EXTT8=
EXTT9=
EXTT10=
EXTT11=
EXTT12=
EXTT13=
EXTT14=
EXTT15=
PLAYORDER=
